<svg width="102" height="102" viewBox="0 0 102 102" fill="none" xmlns="http://www.w3.org/2000/svg">
<circle cx="51" cy="51" r="51" fill="#E8FCE0"/>
<path d="M37.249 72.7509C31.1751 78.8249 20.8883 78.8007 18.0155 70.7056C17.453 69.1207 17.0033 67.491 16.6725 65.8282C15.322 59.0387 16.0152 52.0015 18.6642 45.606C21.3133 39.2107 25.7993 33.7444 31.555 29.8986C37.3108 26.0527 44.0778 24 51.0001 24C57.9224 24 64.6893 26.0527 70.4449 29.8986C76.2007 33.7444 80.6867 39.2107 83.3358 45.6062C85.9849 52.0015 86.6779 59.0387 85.3275 65.8282C84.9968 67.491 84.5471 69.1207 83.9845 70.7056C81.1116 78.8007 70.8249 78.8249 64.7509 72.7509L55.375 63.375C54.4792 62.4792 54.5718 61.0019 54.8189 59.7596C54.969 59.0044 54.8919 58.2215 54.5972 57.51C54.3025 56.7985 53.8035 56.1903 53.1632 55.7626C52.5229 55.3348 51.7702 55.1064 51.0001 55.1064C50.23 55.1064 49.4772 55.3348 48.8369 55.7626C48.1964 56.1903 47.6975 56.7985 47.4027 57.51C47.108 58.2215 47.0309 59.0044 47.1812 59.7596C47.4284 61.0019 47.5207 62.4792 46.6249 63.375L37.249 72.7509Z" fill="url(#paint0_radial_14_101)"/>
<defs>
<radialGradient id="paint0_radial_14_101" cx="0" cy="0" r="1" gradientUnits="userSpaceOnUse" gradientTransform="translate(28.25 67.3125) rotate(-34.484) scale(52.5456 69.3081)">
<stop stop-color="#59FF4A"/>
<stop offset="1" stop-color="#E3E737"/>
</radialGradient>
</defs>
</svg>
